<svg xmlns="http://www.w3.org/2000/svg" width="87.12" height="35" viewBox="0 0 87.12 35"><rect class="svg__rect" x="0" y="0" width="87.12" height="35" fill="#31C4F3"/><rect class="svg__rect" x="87.12" y="0" width="0" height="35" fill="#389AD5"/><path class="svg__text" d="M15.70 22L14.22 22L14.22 13.47L17.22 13.47Q18.69 13.47 19.50 14.13Q20.30 14.79 20.30 16.05L20.30 16.05Q20.30 16.90 19.89 17.48Q19.47 18.06 18.73 18.37L18.73 18.37L20.65 21.92L20.65 22L19.06 22L17.35 18.71L15.70 18.71L15.70 22ZM15.70 14.66L15.70 17.52L17.22 17.52Q17.97 17.52 18.39 17.15Q18.82 16.77 18.82 16.11L18.82 16.11Q18.82 15.43 18.43 15.05Q18.04 14.68 17.26 14.66L17.26 14.66L15.70 14.66ZM30.27 22L24.69 22L24.69 13.47L30.23 13.47L30.23 14.66L26.18 14.66L26.18 17.02L29.68 17.02L29.68 18.19L26.18 18.19L26.18 20.82L30.27 20.82L30.27 22ZM35.25 22L33.71 22L36.93 13.47L38.26 13.47L41.49 22L39.94 22L39.24 20.01L35.94 20.01L35.25 22ZM37.59 15.28L36.35 18.82L38.83 18.82L37.59 15.28ZM47.90 22L45.44 22L45.44 13.47L47.96 13.47Q49.09 13.47 49.97 13.97Q50.84 14.48 51.32 15.40Q51.81 16.33 51.81 17.52L51.81 17.52L51.81 17.95Q51.81 19.16 51.32 20.08Q50.84 21.00 49.94 21.50Q49.05 22 47.90 22L47.90 22ZM46.92 14.66L46.92 20.82L47.89 20.82Q49.06 20.82 49.68 20.09Q50.31 19.36 50.32 17.99L50.32 17.99L50.32 17.52Q50.32 16.13 49.71 15.40Q49.11 14.66 47.96 14.66L47.96 14.66L46.92 14.66ZM57.75 22L56.27 22L56.27 13.47L58.19 13.47L60.65 20.01L63.11 13.47L65.02 13.47L65.02 22L63.55 22L63.55 19.19L63.69 15.43L61.17 22L60.11 22L57.60 15.43L57.75 19.19L57.75 22ZM75.34 22L69.76 22L69.76 13.47L75.30 13.47L75.30 14.66L71.25 14.66L71.25 17.02L74.75 17.02L74.75 18.19L71.25 18.19L71.25 20.82L75.34 20.82L75.34 22Z" fill="#FFFFFF"/><path class="svg__text" d="" fill="#FFFFFF" x="100.12"/></svg>